<svg width="64" height="34" viewBox="0 0 64 34" fill="none" xmlns="http://www.w3.org/2000/svg">
<rect width="30" height="29.25" fill="white"/>
<path d="M23.8014 26H18.6689L15.8858 14.0723C15.5484 12.6747 15.2592 11.2048 15.0183 9.66265C14.7773 10.9398 14.5845 11.9157 14.44 12.5904C14.2954 13.241 13.2592 17.7108 11.3315 26H6.19901L0.885754 5.36145H5.25925L8.25925 18.6988L8.90985 21.9157C9.17491 20.5663 9.43997 19.2771 9.70503 18.0482C9.97009 16.7952 10.946 12.5663 12.6327 5.36145H17.4761L20.0785 16.3494C20.2954 17.1687 20.6448 19.0241 21.1267 21.9157L21.4882 20.2169L22.2833 16.8554L24.7412 5.36145H29.1508L23.8014 26Z" fill="#2C2C2C"/>
<rect width="30" height="29.25" transform="translate(30)" fill="#2C2C2C"/>
<g filter="url(#filter0_d_837_6)">
<path d="M53.8014 26H48.6689L45.8858 14.0723C45.5484 12.6747 45.2592 11.2048 45.0183 9.66265C44.7773 10.9398 44.5845 11.9157 44.44 12.5904C44.2954 13.241 43.2592 17.7108 41.3315 26H36.199L30.8858 5.36145H35.2592L38.2592 18.6988L38.9099 21.9157C39.1749 20.5663 39.44 19.2771 39.705 18.0482C39.9701 16.7952 40.946 12.5663 42.6327 5.36145H47.4761L50.0785 16.3494C50.2954 17.1687 50.6448 19.0241 51.1267 21.9157L51.4882 20.2169L52.2833 16.8554L54.7412 5.36145H59.1508L53.8014 26Z" fill="white"/>
</g>
<defs>
<filter id="filter0_d_837_6" x="26.8857" y="5.36145" width="36.265" height="28.6385" filterUnits="userSpaceOnUse" color-interpolation-filters="sRGB">
<feFlood flood-opacity="0" result="BackgroundImageFix"/>
<feColorMatrix in="SourceAlpha" type="matrix" values="0 0 0 0 0 0 0 0 0 0 0 0 0 0 0 0 0 0 127 0" result="hardAlpha"/>
<feOffset dy="4"/>
<feGaussianBlur stdDeviation="2"/>
<feComposite in2="hardAlpha" operator="out"/>
<feColorMatrix type="matrix" values="0 0 0 0 0 0 0 0 0 0 0 0 0 0 0 0 0 0 0.25 0"/>
<feBlend mode="normal" in2="BackgroundImageFix" result="effect1_dropShadow_837_6"/>
<feBlend mode="normal" in="SourceGraphic" in2="effect1_dropShadow_837_6" result="shape"/>
</filter>
</defs>
</svg>
